#tb 0: 1/25
#media_type 0: video
#codec_id 0: rawvideo
#dimensions 0: 176x144
#sar 0: 0/1
0,          0,          0,        1,    38016, 0xb3883478
0,          1,          1,        1,    38016, 0x47b90d4b
0,          2,          2,        1,    38016, 0x3e99dfcf
0,          3,          3,        1,    38016, 0xeb18bb85
0,          4,          4,        1,    38016, 0xcf1e9658
0,          5,          5,        1,    38016, 0xf01b7bf1
0,          6,          6,        1,    38016, 0x92e06ac5
0,          7,          7,        1,    38016, 0x8ae35c1f
0,          8,          8,        1,    38016, 0x4bda52c8
0,          9,          9,        1,    38016, 0xbffe59e5
0,         10,         10,        1,    38016, 0x56c96cad
0,         11,         11,        1,    38016, 0x8a278da1
0,         12,         12,        1,    38016, 0xce6f97d6
0,         13,         13,        1,    38016, 0x69edad2e
0,         14,         14,        1,    38016, 0x5134a67c
0,         15,         15,        1,    38016, 0x1abfb2a1
0,         16,         16,        1,    38016, 0x4a37b185
0,         17,         17,        1,    38016, 0x5270a90e
0,         18,         18,        1,    38016, 0xe28f9d5d
0,         19,         19,        1,    38016, 0x3fcc87b0
0,         20,         20,        1,    38016, 0x719e6605
0,         21,         21,        1,    38016, 0x8b824ca3
0,         22,         22,        1,    38016, 0x5f6a3544
0,         23,         23,        1,    38016, 0x2ecd2ada
0,         24,         24,        1,    38016, 0x5d4f3055
0,         25,         25,        1,    38016, 0xc54441d3
0,         26,         26,        1,    38016, 0x93f83f2c
0,         27,         27,        1,    38016, 0xaa4d46a8
0,         28,         28,        1,    38016, 0x7ca45c1f
0,         29,         29,        1,    38016, 0x59de7854
0,         30,         30,        1,    38016, 0xc8f98709
0,         31,         31,        1,    38016, 0x9a199eeb
0,         32,         32,        1,    38016, 0xfd82b785
0,         33,         33,        1,    38016, 0x319fd17f
0,         34,         34,        1,    38016, 0xc6ebd362
0,         35,         35,        1,    38016, 0xbd60d5dc
0,         36,         36,        1,    38016, 0x6e27d260
0,         37,         37,        1,    38016, 0x96b7cf93
0,         38,         38,        1,    38016, 0x6787cbcf
0,         39,         39,        1,    38016, 0x48dacd76
0,         40,         40,        1,    38016, 0xbef1d08e
0,         41,         41,        1,    38016, 0xbb1bd9a4
0,         42,         42,        1,    38016, 0xa420d63b
0,         43,         43,        1,    38016, 0xfa26d0ab
0,         44,         44,        1,    38016, 0xa349d2e0
0,         45,         45,        1,    38016, 0x9946ce09
0,         46,         46,        1,    38016, 0xb101cabe
0,         47,         47,        1,    38016, 0x9e18c6b2
0,         48,         48,        1,    38016, 0xe7cccbd9
0,         49,         49,        1,    38016, 0x1067d145
0,         50,         50,        1,    38016, 0xae13cd75
0,         51,         51,        1,    38016, 0x8e06cce5
0,         52,         52,        1,    38016, 0x0b3dcbf8
0,         53,         53,        1,    38016, 0xc6cbcfbe
0,         54,         54,        1,    38016, 0x1eced2f7
0,         55,         55,        1,    38016, 0x5d72da04
0,         56,         56,        1,    38016, 0x0643e191
0,         57,         57,        1,    38016, 0x3cace7f7
0,         58,         58,        1,    38016, 0x5e31f1f0
0,         59,         59,        1,    38016, 0x04d1ef46
0,         60,         60,        1,    38016, 0xffdbe794
0,         61,         61,        1,    38016, 0x106ad275
0,         62,         62,        1,    38016, 0x5c64a147
0,         63,         63,        1,    38016, 0xb7676212
0,         64,         64,        1,    38016, 0x86ea653e
0,         65,         65,        1,    38016, 0xabb48937
0,         66,         66,        1,    38016, 0x6b1cadc4
0,         67,         67,        1,    38016, 0xa4eaf34b
0,         68,         68,        1,    38016, 0x4174280f
0,         69,         69,        1,    38016, 0xfe845818
0,         70,         70,        1,    38016, 0xc64a838e
0,         71,         71,        1,    38016, 0x5e24aaf0
0,         72,         72,        1,    38016, 0x8bffd9d8
0,         73,         73,        1,    38016, 0x00d912c9
0,         74,         74,        1,    38016, 0x0dba50f0
0,         75,         75,        1,    38016, 0x80958628
0,         76,         76,        1,    38016, 0x4e81a356
0,         77,         77,        1,    38016, 0x121dc289
0,         78,         78,        1,    38016, 0x4885de6f
0,         79,         79,        1,    38016, 0x5329e4f9
0,         80,         80,        1,    38016, 0xa129ef6b
0,         81,         81,        1,    38016, 0x3ea6fd46
0,         82,         82,        1,    38016, 0x9a68fbb4
0,         83,         83,        1,    38016, 0xea1dffdd
0,         84,         84,        1,    38016, 0x7bf9f719
0,         85,         85,        1,    38016, 0x9aa5ff2a
0,         86,         86,        1,    38016, 0xf050fe90
0,         87,         87,        1,    38016, 0xb6f50938
0,         88,         88,        1,    38016, 0xbe900b57
0,         89,         89,        1,    38016, 0x27b90a6b
0,         90,         90,        1,    38016, 0xe87bf703
0,         91,         91,        1,    38016, 0xaf0fdbe1
0,         92,         92,        1,    38016, 0x3f2cc304
0,         93,         93,        1,    38016, 0x0114b42f
0,         94,         94,        1,    38016, 0x7f739915
0,         95,         95,        1,    38016, 0xcc3da414
0,         96,         96,        1,    38016, 0x57e2afe8
0,         97,         97,        1,    38016, 0x59b6bdc5
0,         98,         98,        1,    38016, 0xb3eacf6a
0,         99,         99,        1,    38016, 0xa10ddcd8
0,        100,        100,        1,    38016, 0xae05e697
0,        101,        101,        1,    38016, 0x8cb9d81c
0,        102,        102,        1,    38016, 0x5d5cc3b1
0,        103,        103,        1,    38016, 0x8f89c0c0
0,        104,        104,        1,    38016, 0x593cda26
0,        105,        105,        1,    38016, 0xd5d1f2fc
0,        106,        106,        1,    38016, 0x2586ff00
0,        107,        107,        1,    38016, 0x1c2613f0
0,        108,        108,        1,    38016, 0x236133bd
0,        109,        109,        1,    38016, 0x92c5439b
0,        110,        110,        1,    38016, 0xd1145724
0,        111,        111,        1,    38016, 0xf2fa5c12
0,        112,        112,        1,    38016, 0x810d5f50
0,        113,        113,        1,    38016, 0x196f4470
0,        114,        114,        1,    38016, 0xcba71d6b
0,        115,        115,        1,    38016, 0x58ab17b0
0,        116,        116,        1,    38016, 0x4a96278d
0,        117,        117,        1,    38016, 0x4afe2f7d
0,        118,        118,        1,    38016, 0xe1ca3d55
0,        119,        119,        1,    38016, 0x4f6844ab
0,        120,        120,        1,    38016, 0x7ad24bc5
0,        121,        121,        1,    38016, 0x068c49f0
0,        122,        122,        1,    38016, 0x23b92dae
0,        123,        123,        1,    38016, 0x0e9a0793
0,        124,        124,        1,    38016, 0xc1d2dd4a
0,        125,        125,        1,    38016, 0x1b5cbc00
0,        126,        126,        1,    38016, 0xa951b88d
0,        127,        127,        1,    38016, 0x8b4ac1df
0,        128,        128,        1,    38016, 0x91d3d98d
0,        129,        129,        1,    38016, 0xa42aeb49
0,        130,        130,        1,    38016, 0x21b5f1f6
0,        131,        131,        1,    38016, 0xd632f07f
0,        132,        132,        1,    38016, 0x6566ec26
0,        133,        133,        1,    38016, 0x03f4ee70
0,        134,        134,        1,    38016, 0x62b6e999
0,        135,        135,        1,    38016, 0xfd1de6fb
0,        136,        136,        1,    38016, 0xb07bdc79
0,        137,        137,        1,    38016, 0xace9d441
0,        138,        138,        1,    38016, 0x7d98c788
0,        139,        139,        1,    38016, 0x3c7dbae4
0,        140,        140,        1,    38016, 0x6e85b20f
0,        141,        141,        1,    38016, 0x86a5a6bc
0,        142,        142,        1,    38016, 0xacbe93ca
0,        143,        143,        1,    38016, 0x8e438bde
0,        144,        144,        1,    38016, 0x88b4963d
0,        145,        145,        1,    38016, 0x86119504
0,        146,        146,        1,    38016, 0x0ccc8932
0,        147,        147,        1,    38016, 0x69a45f01
0,        148,        148,        1,    38016, 0x8f173148
0,        149,        149,        1,    38016, 0x1e320daf
0,        150,        150,        1,    38016, 0x3957e834
0,        151,        151,        1,    38016, 0x57c1dcee
0,        152,        152,        1,    38016, 0x2a9edf52
0,        153,        153,        1,    38016, 0x116ed4bc
0,        154,        154,        1,    38016, 0x81cfc686
0,        155,        155,        1,    38016, 0x6685db47
0,        156,        156,        1,    38016, 0xab79fd2f
0,        157,        157,        1,    38016, 0x65201bdd
0,        158,        158,        1,    38016, 0x06e64eb6
0,        159,        159,        1,    38016, 0xbcb77ac0
0,        160,        160,        1,    38016, 0x65679028
0,        161,        161,        1,    38016, 0xf33e837e
0,        162,        162,        1,    38016, 0xa77d7b6c
0,        163,        163,        1,    38016, 0x0e7b64f6
0,        164,        164,        1,    38016, 0x2d1f597c
0,        165,        165,        1,    38016, 0x1b6748a1
0,        166,        166,        1,    38016, 0x12a91f4f
0,        167,        167,        1,    38016, 0xc09df3ee
0,        168,        168,        1,    38016, 0x1b9dcd6f
0,        169,        169,        1,    38016, 0xf3c2bce4
0,        170,        170,        1,    38016, 0xfe05d34b
0,        171,        171,        1,    38016, 0x421deb25
0,        172,        172,        1,    38016, 0x0f8d0725
0,        173,        173,        1,    38016, 0xa03d0a3d
0,        174,        174,        1,    38016, 0xe00cf88f
0,        175,        175,        1,    38016, 0xa55abfdf
0,        176,        176,        1,    38016, 0x11618891
0,        177,        177,        1,    38016, 0x45835caf
0,        178,        178,        1,    38016, 0x7be63a3b
0,        179,        179,        1,    38016, 0x1ebb2104
0,        180,        180,        1,    38016, 0x055b0b26
0,        181,        181,        1,    38016, 0x076ef47e
0,        182,        182,        1,    38016, 0xa828e6e1
0,        183,        183,        1,    38016, 0x0de5eb60
0,        184,        184,        1,    38016, 0x5238f229
0,        185,        185,        1,    38016, 0x332cff7c
0,        186,        186,        1,    38016, 0x74072063
0,        187,        187,        1,    38016, 0x1e623ceb
0,        188,        188,        1,    38016, 0xad2448c9
0,        189,        189,        1,    38016, 0x32065043
0,        190,        190,        1,    38016, 0x2e7ff976
0,        191,        191,        1,    38016, 0xf1a8c805
0,        192,        192,        1,    38016, 0x3f64d1cc
0,        193,        193,        1,    38016, 0xc855efbd
0,        194,        194,        1,    38016, 0x152b0fed
0,        195,        195,        1,    38016, 0x43335881
0,        196,        196,        1,    38016, 0xec5c7979
0,        197,        197,        1,    38016, 0x150e9488
0,        198,        198,        1,    38016, 0x1a63b67a
0,        199,        199,        1,    38016, 0x24a4cca6
0,        200,        200,        1,    38016, 0x3838dba2
0,        201,        201,        1,    38016, 0xef1bec71
0,        202,        202,        1,    38016, 0x0478f12a
0,        203,        203,        1,    38016, 0x478fee17
0,        204,        204,        1,    38016, 0x1d09f0ac
0,        205,        205,        1,    38016, 0x3daef591
0,        206,        206,        1,    38016, 0xf7f3033c
0,        207,        207,        1,    38016, 0xfb09faa0
0,        208,        208,        1,    38016, 0xd87de6c9
0,        209,        209,        1,    38016, 0xbd99d6bc
0,        210,        210,        1,    38016, 0x87d8bd7d
0,        211,        211,        1,    38016, 0xf244b18a
0,        212,        212,        1,    38016, 0x3a34a2da
0,        213,        213,        1,    38016, 0x25739701
0,        214,        214,        1,    38016, 0x346b8b9a
0,        215,        215,        1,    38016, 0xc67379ec
0,        216,        216,        1,    38016, 0xbd30780d
0,        217,        217,        1,    38016, 0xc5197c2b
0,        218,        218,        1,    38016, 0xd5ce73e8
0,        219,        219,        1,    38016, 0x63ce72d1
0,        220,        220,        1,    38016, 0x140d688d
0,        221,        221,        1,    38016, 0x027158aa
0,        222,        222,        1,    38016, 0x90884ce3
0,        223,        223,        1,    38016, 0x4faa38c5
0,        224,        224,        1,    38016, 0x78693f54
0,        225,        225,        1,    38016, 0xe1fa41c1
0,        226,        226,        1,    38016, 0x9b524771
0,        227,        227,        1,    38016, 0xbb3056c8
0,        228,        228,        1,    38016, 0xa93b67df
0,        229,        229,        1,    38016, 0xe661909f
0,        230,        230,        1,    38016, 0x55a0af6d
0,        231,        231,        1,    38016, 0xa5f6d0a8
0,        232,        232,        1,    38016, 0xa44300f8
0,        233,        233,        1,    38016, 0xc7cc265e
0,        234,        234,        1,    38016, 0xe7384598
0,        235,        235,        1,    38016, 0x77e4589a
0,        236,        236,        1,    38016, 0x073c7054
0,        237,        237,        1,    38016, 0xe50e6ea8
0,        238,        238,        1,    38016, 0xcedf518f
0,        239,        239,        1,    38016, 0x8674266b
0,        240,        240,        1,    38016, 0x360e0517
0,        241,        241,        1,    38016, 0x19acdb3a
0,        242,        242,        1,    38016, 0xd029d91b
0,        243,        243,        1,    38016, 0x3101277f
0,        244,        244,        1,    38016, 0x3a919153
0,        245,        245,        1,    38016, 0x0646ffaf
0,        246,        246,        1,    38016, 0xffdd13a5
0,        247,        247,        1,    38016, 0x13e2e641
0,        248,        248,        1,    38016, 0xc6f6a13b
0,        249,        249,        1,    38016, 0x984f2ecd
0,        250,        250,        1,    38016, 0xafaec63a
0,        251,        251,        1,    38016, 0x9025817a
0,        252,        252,        1,    38016, 0x20d574d7
0,        253,        253,        1,    38016, 0x72eacc49
0,        254,        254,        1,    38016, 0x6297335a
0,        255,        255,        1,    38016, 0xc69adba1
0,        256,        256,        1,    38016, 0x7852d515
0,        257,        257,        1,    38016, 0x0e846003
0,        258,        258,        1,    38016, 0xeb294c5e
0,        259,        259,        1,    38016, 0x0913448f
0,        260,        260,        1,    38016, 0xea2c4fc1
0,        261,        261,        1,    38016, 0xb8165b3f
0,        262,        262,        1,    38016, 0x5f596c9d
0,        263,        263,        1,    38016, 0x3a1370d1
0,        264,        264,        1,    38016, 0x25dd6a9a
0,        265,        265,        1,    38016, 0x70075f7a
0,        266,        266,        1,    38016, 0xaf6749f0
0,        267,        267,        1,    38016, 0xd5c22d02
0,        268,        268,        1,    38016, 0xf6e80af2
0,        269,        269,        1,    38016, 0x42d1dcf7
0,        270,        270,        1,    38016, 0x232cb536
0,        271,        271,        1,    38016, 0x7c848ebf
0,        272,        272,        1,    38016, 0x4c756c28
0,        273,        273,        1,    38016, 0x720e1f07
0,        274,        274,        1,    38016, 0x2385ccb2
0,        275,        275,        1,    38016, 0xcd97bf76
0,        276,        276,        1,    38016, 0xebcad10b
0,        277,        277,        1,    38016, 0xbed8ceeb
0,        278,        278,        1,    38016, 0x660ffaf8
0,        279,        279,        1,    38016, 0x6a1662a9
0,        280,        280,        1,    38016, 0x71f20775
0,        281,        281,        1,    38016, 0x597ecf26
0,        282,        282,        1,    38016, 0x7a81a050
0,        283,        283,        1,    38016, 0x05f6676a
0,        284,        284,        1,    38016, 0xd0065042
0,        285,        285,        1,    38016, 0x17ca9cd9
0,        286,        286,        1,    38016, 0x76956633
0,        287,        287,        1,    38016, 0x9211a2b0
0,        288,        288,        1,    38016, 0xc134b304
0,        289,        289,        1,    38016, 0xdaca9260
0,        290,        290,        1,    38016, 0x10252d19
0,        291,        291,        1,    38016, 0xf52a44af
0,        292,        292,        1,    38016, 0x4053d2d1
0,        293,        293,        1,    38016, 0x165e0bed
0,        294,        294,        1,    38016, 0x577352d0
0,        295,        295,        1,    38016, 0xf9564a09
0,        296,        296,        1,    38016, 0x78a8295f
0,        297,        297,        1,    38016, 0xb2d7182a
0,        298,        298,        1,    38016, 0x9a0c2487
0,        299,        299,        1,    38016, 0x1b044efa
